<mxfile host="app.diagrams.net" modified="2023-11-04T16:32:03.084Z" agent="Mozilla/5.0 (Windows NT 10.0; Win64; x64) AppleWebKit/537.36 (KHTML, like Gecko) Chrome/118.0.0.0 Safari/537.36" etag="-evMOyvyoBOqrxPlqv-v" version="22.0.8" type="device">
  <diagram name="Page-1" id="B5kTWqLc53q982HK3Fcd">
    <mxGraphModel dx="2248" dy="1195" grid="1" gridSize="10" guides="1" tooltips="1" connect="1" arrows="1" fold="1" page="1" pageScale="1" pageWidth="827" pageHeight="1169" math="0" shadow="0">
      <root>
        <mxCell id="0" />
        <mxCell id="1" parent="0" />
        <mxCell id="KHluLP8cQaQGa4dWnNi9-1" value="USER INPUT" style="rounded=0;whiteSpace=wrap;html=1;" parent="1" vertex="1">
          <mxGeometry x="80" y="40" width="120" height="60" as="geometry" />
        </mxCell>
        <mxCell id="KHluLP8cQaQGa4dWnNi9-2" value="OUTPUT TO USER" style="rounded=0;whiteSpace=wrap;html=1;" parent="1" vertex="1">
          <mxGeometry x="580" y="40" width="120" height="60" as="geometry" />
        </mxCell>
        <mxCell id="KHluLP8cQaQGa4dWnNi9-6" value="" style="rounded=1;whiteSpace=wrap;html=1;" parent="1" vertex="1">
          <mxGeometry x="160" y="200" width="460" height="170" as="geometry" />
        </mxCell>
        <mxCell id="KHluLP8cQaQGa4dWnNi9-7" value="VOICE TO TEXT&amp;nbsp;" style="rounded=0;whiteSpace=wrap;html=1;" parent="1" vertex="1">
          <mxGeometry x="210" y="250" width="120" height="60" as="geometry" />
        </mxCell>
        <mxCell id="KHluLP8cQaQGa4dWnNi9-8" value="TEXT TO VOICE" style="rounded=0;whiteSpace=wrap;html=1;" parent="1" vertex="1">
          <mxGeometry x="450" y="250" width="120" height="60" as="geometry" />
        </mxCell>
        <mxCell id="KHluLP8cQaQGa4dWnNi9-9" value="MIDDLEWARE OF API" style="rounded=0;whiteSpace=wrap;html=1;" parent="1" vertex="1">
          <mxGeometry x="320" y="440" width="120" height="60" as="geometry" />
        </mxCell>
        <mxCell id="KHluLP8cQaQGa4dWnNi9-10" value="PATTREN MATCHING ALGORITHM" style="rounded=0;whiteSpace=wrap;html=1;" parent="1" vertex="1">
          <mxGeometry x="320" y="585" width="120" height="60" as="geometry" />
        </mxCell>
        <mxCell id="KHluLP8cQaQGa4dWnNi9-11" value="DATABASE" style="rounded=0;whiteSpace=wrap;html=1;" parent="1" vertex="1">
          <mxGeometry x="320" y="730" width="120" height="60" as="geometry" />
        </mxCell>
        <mxCell id="KHluLP8cQaQGa4dWnNi9-14" value="USE INPUT VOICE&amp;nbsp;" style="endArrow=classic;html=1;rounded=0;exitX=0.5;exitY=1;exitDx=0;exitDy=0;entryX=0.25;entryY=0;entryDx=0;entryDy=0;" parent="1" source="KHluLP8cQaQGa4dWnNi9-1" target="KHluLP8cQaQGa4dWnNi9-6" edge="1">
          <mxGeometry relative="1" as="geometry">
            <mxPoint x="450" y="160" as="sourcePoint" />
            <mxPoint x="610" y="160" as="targetPoint" />
            <Array as="points">
              <mxPoint x="140" y="160" />
              <mxPoint x="275" y="160" />
            </Array>
          </mxGeometry>
        </mxCell>
        <mxCell id="KHluLP8cQaQGa4dWnNi9-18" value="CHATBOT VOICE OUTPUT" style="endArrow=classic;html=1;rounded=0;exitX=0.785;exitY=0;exitDx=0;exitDy=0;exitPerimeter=0;entryX=0.5;entryY=1;entryDx=0;entryDy=0;" parent="1" source="KHluLP8cQaQGa4dWnNi9-6" target="KHluLP8cQaQGa4dWnNi9-2" edge="1">
          <mxGeometry x="0.0001" relative="1" as="geometry">
            <mxPoint x="520" y="160" as="sourcePoint" />
            <mxPoint x="620" y="160" as="targetPoint" />
            <Array as="points">
              <mxPoint x="520" y="160" />
              <mxPoint x="660" y="160" />
              <mxPoint x="640" y="150" />
            </Array>
            <mxPoint as="offset" />
          </mxGeometry>
        </mxCell>
        <mxCell id="KHluLP8cQaQGa4dWnNi9-21" value="JSON&lt;br&gt;PARSER" style="ellipse;whiteSpace=wrap;html=1;" parent="1" vertex="1">
          <mxGeometry x="690" y="370" width="90" height="60" as="geometry" />
        </mxCell>
        <mxCell id="KHluLP8cQaQGa4dWnNi9-22" value="" style="endArrow=classic;html=1;rounded=0;exitX=0.122;exitY=1.018;exitDx=0;exitDy=0;exitPerimeter=0;entryX=-0.025;entryY=0.65;entryDx=0;entryDy=0;entryPerimeter=0;" parent="1" source="KHluLP8cQaQGa4dWnNi9-6" target="KHluLP8cQaQGa4dWnNi9-9" edge="1">
          <mxGeometry relative="1" as="geometry">
            <mxPoint x="420" y="460" as="sourcePoint" />
            <mxPoint x="320" y="470" as="targetPoint" />
            <Array as="points">
              <mxPoint x="216" y="440" />
              <mxPoint x="216" y="480" />
            </Array>
          </mxGeometry>
        </mxCell>
        <mxCell id="KHluLP8cQaQGa4dWnNi9-23" value="TEXT OUTPUT" style="edgeLabel;resizable=0;html=1;align=center;verticalAlign=middle;" parent="KHluLP8cQaQGa4dWnNi9-22" connectable="0" vertex="1">
          <mxGeometry relative="1" as="geometry" />
        </mxCell>
        <mxCell id="KHluLP8cQaQGa4dWnNi9-24" value="" style="endArrow=classic;html=1;rounded=0;exitX=0.5;exitY=0;exitDx=0;exitDy=0;entryX=1;entryY=0.5;entryDx=0;entryDy=0;" parent="1" source="KHluLP8cQaQGa4dWnNi9-21" target="KHluLP8cQaQGa4dWnNi9-2" edge="1">
          <mxGeometry width="50" height="50" relative="1" as="geometry">
            <mxPoint x="450" y="480" as="sourcePoint" />
            <mxPoint x="825" y="70" as="targetPoint" />
            <Array as="points">
              <mxPoint x="735" y="70" />
            </Array>
          </mxGeometry>
        </mxCell>
        <mxCell id="KHluLP8cQaQGa4dWnNi9-25" value="" style="endArrow=classic;html=1;rounded=0;exitX=0;exitY=0.5;exitDx=0;exitDy=0;entryX=0.852;entryY=1.024;entryDx=0;entryDy=0;entryPerimeter=0;" parent="1" source="KHluLP8cQaQGa4dWnNi9-21" target="KHluLP8cQaQGa4dWnNi9-6" edge="1">
          <mxGeometry relative="1" as="geometry">
            <mxPoint x="760" y="400" as="sourcePoint" />
            <mxPoint x="540" y="400" as="targetPoint" />
            <Array as="points">
              <mxPoint x="552" y="400" />
            </Array>
          </mxGeometry>
        </mxCell>
        <mxCell id="KHluLP8cQaQGa4dWnNi9-26" value="TEXT INPUT" style="edgeLabel;resizable=0;html=1;align=center;verticalAlign=middle;" parent="KHluLP8cQaQGa4dWnNi9-25" connectable="0" vertex="1">
          <mxGeometry relative="1" as="geometry" />
        </mxCell>
        <mxCell id="KHluLP8cQaQGa4dWnNi9-28" value="" style="endArrow=classic;html=1;rounded=0;exitX=1.008;exitY=0.633;exitDx=0;exitDy=0;entryX=0.5;entryY=1;entryDx=0;entryDy=0;exitPerimeter=0;" parent="1" source="KHluLP8cQaQGa4dWnNi9-9" target="KHluLP8cQaQGa4dWnNi9-21" edge="1">
          <mxGeometry width="50" height="50" relative="1" as="geometry">
            <mxPoint x="450" y="440" as="sourcePoint" />
            <mxPoint x="830" y="480" as="targetPoint" />
            <Array as="points">
              <mxPoint x="735" y="480" />
            </Array>
          </mxGeometry>
        </mxCell>
        <mxCell id="KHluLP8cQaQGa4dWnNi9-29" value="" style="endArrow=classic;startArrow=classic;html=1;rounded=0;entryX=0.5;entryY=1;entryDx=0;entryDy=0;" parent="1" target="KHluLP8cQaQGa4dWnNi9-9" edge="1">
          <mxGeometry width="50" height="50" relative="1" as="geometry">
            <mxPoint x="380" y="580" as="sourcePoint" />
            <mxPoint x="390" y="510" as="targetPoint" />
          </mxGeometry>
        </mxCell>
        <mxCell id="KHluLP8cQaQGa4dWnNi9-30" value="" style="endArrow=classic;startArrow=classic;html=1;rounded=0;entryX=0.5;entryY=1;entryDx=0;entryDy=0;" parent="1" edge="1">
          <mxGeometry width="50" height="50" relative="1" as="geometry">
            <mxPoint x="379.5" y="725" as="sourcePoint" />
            <mxPoint x="379.5" y="645" as="targetPoint" />
          </mxGeometry>
        </mxCell>
        <mxCell id="KHluLP8cQaQGa4dWnNi9-32" value="IF USER INPUT IS TEXT" style="text;html=1;strokeColor=none;fillColor=none;align=center;verticalAlign=middle;whiteSpace=wrap;rounded=0;" parent="1" vertex="1">
          <mxGeometry x="20" y="250" width="60" height="30" as="geometry" />
        </mxCell>
        <mxCell id="KHluLP8cQaQGa4dWnNi9-33" value="IF INPUT IS&amp;nbsp; TEXT" style="text;html=1;strokeColor=none;fillColor=none;align=center;verticalAlign=middle;whiteSpace=wrap;rounded=0;" parent="1" vertex="1">
          <mxGeometry x="730" y="230" width="60" height="30" as="geometry" />
        </mxCell>
        <mxCell id="KHluLP8cQaQGa4dWnNi9-34" value="" style="endArrow=classic;html=1;rounded=0;exitX=0.25;exitY=1;exitDx=0;exitDy=0;entryX=0;entryY=0.383;entryDx=0;entryDy=0;entryPerimeter=0;" parent="1" source="KHluLP8cQaQGa4dWnNi9-1" target="KHluLP8cQaQGa4dWnNi9-9" edge="1">
          <mxGeometry width="50" height="50" relative="1" as="geometry">
            <mxPoint x="310" y="330" as="sourcePoint" />
            <mxPoint x="360" y="280" as="targetPoint" />
            <Array as="points">
              <mxPoint x="110" y="463" />
            </Array>
          </mxGeometry>
        </mxCell>
        <mxCell id="KHluLP8cQaQGa4dWnNi9-35" value="&lt;b&gt;&lt;font style=&quot;font-size: 18px;&quot;&gt;OVERVIEW OF SYSTEM ARCHITECTURE&lt;/font&gt;&lt;/b&gt;" style="text;html=1;strokeColor=none;fillColor=none;align=center;verticalAlign=middle;whiteSpace=wrap;rounded=0;" parent="1" vertex="1">
          <mxGeometry x="180" y="10" width="489" height="30" as="geometry" />
        </mxCell>
      </root>
    </mxGraphModel>
  </diagram>
</mxfile>
